<svg width="31" height="31" viewBox="0 0 31 31" fill="none" xmlns="http://www.w3.org/2000/svg">
<path d="M15.7143 3.71429C9.21564 3.71429 3.92857 9.00137 3.92857 15.5C3.92857 21.9987 9.21564 27.2857 15.7143 27.2857C22.2129 27.2857 27.5 21.9987 27.5 15.5C27.5 9.00137 22.2129 3.71429 15.7143 3.71429ZM15.7143 25.1429C10.3971 25.1429 6.07143 20.8171 6.07143 15.5C6.07143 10.1829 10.3971 5.85715 15.7143 5.85715C21.0314 5.85715 25.3571 10.1829 25.3571 15.5C25.3571 20.8171 21.0314 25.1429 15.7143 25.1429Z" fill="black"/>
<path d="M20.1337 11.3332L14.0727 17.3941L11.2949 14.6162C10.8765 14.1978 10.1981 14.1977 9.77964 14.6161C9.36121 15.0345 9.36121 15.7129 9.77964 16.1313L13.3151 19.6669C13.516 19.8678 13.7885 19.9807 14.0726 19.9807H14.0727C14.3569 19.9807 14.6294 19.8678 14.8303 19.6669L21.6489 12.8484C22.0674 12.43 22.0674 11.7517 21.6489 11.3332C21.2305 10.9148 20.5521 10.9147 20.1337 11.3332Z" fill="black"/>
</svg>
