<svg width="25" height="25" viewBox="0 0 25 25" fill="none" xmlns="http://www.w3.org/2000/svg">
<g clip-path="url(#clip0_3_217)">
<path d="M20.8338 4.16624C18.6078 1.94023 15.648 0.714294 12.5 0.714294C9.35198 0.714294 6.39225 1.94023 4.16624 4.16624C1.94023 6.39225 0.714294 9.35198 0.714294 12.5C0.714294 15.6482 1.94023 18.6078 4.16624 20.8338C6.39225 23.0598 9.35198 24.2857 12.5 24.2857C15.648 24.2857 18.6078 23.0598 20.8338 20.8338C23.0598 18.6078 24.2857 15.6482 24.2857 12.5C24.2857 9.35198 23.0598 6.39225 20.8338 4.16624ZM17.5976 15.9698C18.047 16.4193 18.047 17.148 17.5976 17.5975C17.3728 17.8222 17.0783 17.9346 16.7837 17.9346C16.4891 17.9346 16.1946 17.8222 15.9698 17.5975L12.5 14.1277L9.03026 17.5976C8.80546 17.8222 8.51089 17.9346 8.21632 17.9346C7.92175 17.9346 7.62718 17.8222 7.40239 17.5976C6.95298 17.148 6.95298 16.4193 7.40239 15.9699L10.8723 12.5L7.40239 9.03026C6.95298 8.58067 6.95298 7.85197 7.40239 7.40257C7.85197 6.95298 8.58067 6.95298 9.03008 7.40257L12.5 10.8723L15.9698 7.40257C16.4193 6.95316 17.148 6.95298 17.5975 7.40257C18.047 7.85197 18.047 8.58067 17.5975 9.03026L14.1277 12.5L17.5976 15.9698Z" fill="black"/>
</g>
<defs>
<clipPath id="clip0_3_217">
<rect width="23.5714" height="23.5714" fill="white" transform="translate(0.714294 0.714294)"/>
</clipPath>
</defs>
</svg>
