<svg aria-hidden="true" style="position:absolute;width:0;height:0;overflow:hidden" xmlns="http://www.w3.org/2000/svg"><defs><symbol id="icon-delete" viewBox="0 0 32 32"><path d="M26.667 5.333C23.818 2.484 20.029.915 16 .915S8.182 2.484 5.333 5.333.915 11.971.915 16s1.569 7.818 4.418 10.667S11.971 31.085 16 31.085s7.818-1.569 10.667-4.418S31.085 20.029 31.085 16s-1.569-7.818-4.418-10.667zm-4.142 15.108a1.473 1.473 0 0 1-2.084 2.083L16 18.083l-4.441 4.441a1.472 1.472 0 1 1-2.084-2.083L13.916 16l-4.441-4.441a1.473 1.473 0 0 1 2.083-2.083l4.441 4.441 4.441-4.441a1.473 1.473 0 0 1 2.083 2.083L18.082 16l4.441 4.441z"/></symbol><symbol id="icon-text-edit" viewBox="0 0 32 32"><path d="M28.064 7.552H25.65a1.207 1.207 0 0 0 0 2.414h2.414c.666 0 1.207.541 1.207 1.207v9.655c0 .666-.541 1.207-1.207 1.207H25.65a1.207 1.207 0 0 0 0 2.414h2.414a3.625 3.625 0 0 0 3.621-3.621v-9.655a3.625 3.625 0 0 0-3.621-3.621zM6.823 14.793H8.03v3.621a1.206 1.206 0 1 0 2.414 0v-3.621h1.207a1.206 1.206 0 1 0 0-2.414H6.823a1.206 1.206 0 1 0 0 2.414z"/><path d="M4.409 24.448h15.207v2.414h-1.207a1.207 1.207 0 0 0 0 2.414h4.828a1.206 1.206 0 1 0 0-2.414H22.03V5.138h1.207a1.206 1.206 0 1 0 0-2.414h-4.828a1.207 1.207 0 0 0 0 2.414h1.207v2.414H4.409a3.625 3.625 0 0 0-3.621 3.621v9.655a3.625 3.625 0 0 0 3.621 3.621zM3.202 11.172c0-.665.541-1.207 1.207-1.207h15.207v12.069H4.409a1.208 1.208 0 0 1-1.207-1.207v-9.655z"/></symbol><symbol id="icon-done" viewBox="0 0 32 32"><path d="M16.221 3.834C9.513 3.834 4.055 9.292 4.055 16s5.458 12.166 12.166 12.166S28.387 22.708 28.387 16 22.929 3.834 16.221 3.834zm0 22.12c-5.489 0-9.954-4.465-9.954-9.954s4.465-9.954 9.954-9.954c5.489 0 9.954 4.465 9.954 9.954s-4.465 9.954-9.954 9.954z"/><path d="m20.783 11.699-6.257 6.256-2.867-2.867a1.106 1.106 0 1 0-1.564 1.564l3.649 3.65a1.108 1.108 0 0 0 1.564 0l7.039-7.038a1.106 1.106 0 1 0-1.564-1.564z"/></symbol></defs></svg>