<svg aria-hidden="true" style="position:absolute;width:0;height:0;overflow:hidden" xmlns="http://www.w3.org/2000/svg"><defs><symbol id="icon-theme-dark" viewBox="0 0 32 32"><path d="M18.667 32c-8.833-.01-15.99-7.167-16-15.999V16C2.463 4.059 16.042-3.98 26.388 2.012l2.071 1.149-2.057 1.173c-8.933 4.917-8.28 18.493 1.067 22.541l2.161.975-1.956 1.341a15.758 15.758 0 0 1-9.006 2.808h-.001z"/></symbol><symbol id="icon-theme-light" viewBox="0 0 32 32"><path d="M16 9.333c-3.68 0-6.667 2.987-6.667 6.667S12.32 22.667 16 22.667 22.667 19.68 22.667 16 19.68 9.333 16 9.333zm0 9.334c-1.467 0-2.667-1.2-2.667-2.667s1.2-2.667 2.667-2.667 2.667 1.2 2.667 2.667-1.2 2.667-2.667 2.667zM22.6 9.4a1.988 1.988 0 0 1 0-2.827l1.88-1.88a1.988 1.988 0 0 1 2.827 0 1.988 1.988 0 0 1 0 2.827l-1.88 1.88c-.387.387-.907.587-1.413.587s-1.027-.2-1.413-.587zM9.4 22.6a1.988 1.988 0 0 1 0 2.827l-1.88 1.88c-.387.387-.907.587-1.413.587s-1.027-.2-1.413-.587a1.988 1.988 0 0 1 0-2.827l1.88-1.88a1.988 1.988 0 0 1 2.827 0zM4.68 7.52a1.988 1.988 0 0 1 0-2.827 1.988 1.988 0 0 1 2.827 0l1.88 1.88a1.988 1.988 0 0 1 0 2.827c-.387.387-.907.587-1.413.587s-1.027-.2-1.413-.587l-1.88-1.88zm22.627 16.973a1.988 1.988 0 0 1 0 2.827c-.387.387-.907.587-1.413.587s-1.027-.2-1.413-.587l-1.88-1.88a1.988 1.988 0 0 1 0-2.827 1.988 1.988 0 0 1 2.827 0l1.88 1.88zm4.68-8.48c0 1.107-.893 2-2 2H27.32c-1.107 0-2-.893-2-2s.893-2 2-2h2.667c1.107 0 2 .893 2 2zM4.667 18H2c-1.107 0-2-.893-2-2s.893-2 2-2h2.667c1.107 0 2 .893 2 2s-.893 2-2 2zM14 4.667V2c0-1.107.893-2 2-2s2 .893 2 2v2.667c0 1.107-.893 2-2 2s-2-.893-2-2zm4 22.666V30c0 1.107-.893 2-2 2s-2-.893-2-2v-2.667c0-1.107.893-2 2-2s2 .893 2 2z"/></symbol><symbol id="icon-theme-dark_alt" viewBox="0 0 32 32"><path d="M16.012 32C7.168 31.945.019 24.763.019 15.911c0-.567.029-1.128.087-1.68L.1 14.3C.946 7.122 6.389 1.43 13.37.217l.097-.014c.799-.13 1.719-.205 2.657-.205a17.4 17.4 0 0 1 4.168.504l-.119-.025c1.18.31 2.09 1.22 2.395 2.377l.005.023a3.283 3.283 0 0 1-.931 3.232l-.002.002c-6.079 5.557-5.553 14.193 1.076 19.216a3.336 3.336 0 0 1-.91 5.751l-.023.007c-1.715.58-3.691.915-5.745.915h-.027.001zm11.321-16a1.334 1.334 0 0 1-1.291-1l-.002-.009-.477-1.907-1.909-.513a1.333 1.333 0 0 1 .037-2.584l.009-.002 1.867-.433.468-1.875a1.334 1.334 0 0 1 2.584-.009l.002.009.473 1.891 1.891.473a1.334 1.334 0 0 1 .009 2.584l-.009.002-1.891.473-.473 1.891A1.335 1.335 0 0 1 27.333 16zm3.334 6.687a1.333 1.333 0 0 0 0 2.666 1.333 1.333 0 0 0 0-2.666zm-8-5.334a1.333 1.333 0 0 0 0 2.666 1.333 1.333 0 0 0 0-2.666z"/></symbol><symbol id="icon-add-new-task" viewBox="0 0 31 32"><path d="M15.36 3.2C8.294 3.2 2.56 8.934 2.56 16s5.734 12.8 12.8 12.8c7.066 0 12.8-5.734 12.8-12.8S22.426 3.2 15.36 3.2zm5.12 14.08h-3.84v3.84c0 .704-.576 1.28-1.28 1.28s-1.28-.576-1.28-1.28v-3.84h-3.84c-.704 0-1.28-.576-1.28-1.28s.576-1.28 1.28-1.28h3.84v-3.84c0-.704.576-1.28 1.28-1.28s1.28.576 1.28 1.28v3.84h3.84c.704 0 1.28.576 1.28 1.28s-.576 1.28-1.28 1.28z"/></symbol><symbol id="icon-delete" viewBox="0 0 32 32"><path d="M26.667 5.333C23.818 2.484 20.029.915 16 .915S8.182 2.484 5.333 5.333.915 11.971.915 16s1.569 7.818 4.418 10.667S11.971 31.085 16 31.085s7.818-1.569 10.667-4.418S31.085 20.029 31.085 16s-1.569-7.818-4.418-10.667zm-4.142 15.108a1.473 1.473 0 0 1-2.084 2.083L16 18.083l-4.441 4.441a1.472 1.472 0 1 1-2.084-2.083L13.916 16l-4.441-4.441a1.473 1.473 0 0 1 2.083-2.083l4.441 4.441 4.441-4.441a1.473 1.473 0 0 1 2.083 2.083L18.082 16l4.441 4.441z"/></symbol><symbol id="icon-text-edit" viewBox="0 0 32 32"><path d="M28.064 7.552H25.65a1.207 1.207 0 0 0 0 2.414h2.414c.666 0 1.207.541 1.207 1.207v9.655c0 .666-.541 1.207-1.207 1.207H25.65a1.207 1.207 0 0 0 0 2.414h2.414a3.625 3.625 0 0 0 3.621-3.621v-9.655a3.625 3.625 0 0 0-3.621-3.621zM6.823 14.793H8.03v3.621a1.206 1.206 0 1 0 2.414 0v-3.621h1.207a1.206 1.206 0 1 0 0-2.414H6.823a1.206 1.206 0 1 0 0 2.414z"/><path d="M4.409 24.448h15.207v2.414h-1.207a1.207 1.207 0 0 0 0 2.414h4.828a1.206 1.206 0 1 0 0-2.414H22.03V5.138h1.207a1.206 1.206 0 1 0 0-2.414h-4.828a1.207 1.207 0 0 0 0 2.414h1.207v2.414H4.409a3.625 3.625 0 0 0-3.621 3.621v9.655a3.625 3.625 0 0 0 3.621 3.621zM3.202 11.172c0-.665.541-1.207 1.207-1.207h15.207v12.069H4.409a1.208 1.208 0 0 1-1.207-1.207v-9.655z"/></symbol><symbol id="icon-done" viewBox="0 0 32 32"><path d="M16.221 3.834C9.513 3.834 4.055 9.292 4.055 16s5.458 12.166 12.166 12.166S28.387 22.708 28.387 16 22.929 3.834 16.221 3.834zm0 22.12c-5.489 0-9.954-4.465-9.954-9.954s4.465-9.954 9.954-9.954c5.489 0 9.954 4.465 9.954 9.954s-4.465 9.954-9.954 9.954z"/><path d="m20.783 11.699-6.257 6.256-2.867-2.867a1.106 1.106 0 1 0-1.564 1.564l3.649 3.65a1.108 1.108 0 0 0 1.564 0l7.039-7.038a1.106 1.106 0 1 0-1.564-1.564z"/></symbol></defs></svg>