<svg width="29" height="29" viewBox="0 0 29 29" fill="none" xmlns="http://www.w3.org/2000/svg">
<g clip-path="url(#clip0_3_55)">
<path d="M25.433 6.84375H23.2455C22.6415 6.84375 22.1518 7.33342 22.1518 7.9375C22.1518 8.54158 22.6415 9.03125 23.2455 9.03125H25.433C26.0361 9.03125 26.5268 9.52191 26.5268 10.125V18.875C26.5268 19.4781 26.0361 19.9688 25.433 19.9688H23.2455C22.6415 19.9688 22.1518 20.4584 22.1518 21.0625C22.1518 21.6666 22.6415 22.1562 23.2455 22.1562H25.433C27.2423 22.1562 28.7143 20.6843 28.7143 18.875V10.125C28.7143 8.31572 27.2423 6.84375 25.433 6.84375Z" fill="black"/>
<path d="M6.18304 13.4062H7.27679V16.6875C7.27679 17.2916 7.76647 17.7812 8.37054 17.7812C8.97462 17.7812 9.46429 17.2916 9.46429 16.6875V13.4062H10.558C11.1621 13.4062 11.6518 12.9166 11.6518 12.3125C11.6518 11.7084 11.1621 11.2188 10.558 11.2188H6.18304C5.57897 11.2188 5.08929 11.7084 5.08929 12.3125C5.08929 12.9166 5.57897 13.4062 6.18304 13.4062Z" fill="black"/>
<path d="M3.99554 22.1562H17.7768V24.3438H16.683C16.079 24.3438 15.5893 24.8334 15.5893 25.4375C15.5893 26.0416 16.079 26.5312 16.683 26.5312H21.058C21.6621 26.5312 22.1518 26.0416 22.1518 25.4375C22.1518 24.8334 21.6621 24.3438 21.058 24.3438H19.9643V4.65625H21.058C21.6621 4.65625 22.1518 4.16658 22.1518 3.5625C22.1518 2.95842 21.6621 2.46875 21.058 2.46875H16.683C16.079 2.46875 15.5893 2.95842 15.5893 3.5625C15.5893 4.16658 16.079 4.65625 16.683 4.65625H17.7768V6.84375H3.99554C2.18626 6.84375 0.714294 8.31572 0.714294 10.125V18.875C0.714294 20.6843 2.18626 22.1562 3.99554 22.1562ZM2.90179 10.125C2.90179 9.52191 3.39245 9.03125 3.99554 9.03125H17.7768V19.9688H3.99554C3.39245 19.9688 2.90179 19.4781 2.90179 18.875V10.125Z" fill="black"/>
</g>
<defs>
<clipPath id="clip0_3_55">
<rect width="28" height="28" fill="white" transform="translate(0.714294 0.5)"/>
</clipPath>
</defs>
</svg>
